<svg xmlns="http://www.w3.org/2000/svg" viewBox="0 0 96 96" role="img" aria-labelledby="iwytk-mark-title">
  <title id="iwytk-mark-title">i want you to know — folded note signed with a heart</title>
  <path d="M22 20 Q22 16 26 16 H60 L80 36 V76 Q80 80 76 80 H26 Q22 80 22 76 Z"
        fill="var(--brand-paper, #FFFBEB)" stroke="var(--brand-paper-stroke, #E2D2B4)" stroke-width="2"/>
  <path d="M60 16 L80 36 H64 Q60 36 60 32 Z" fill="var(--brand-accent-light, #F59E0B)"/>
  <line x1="32" y1="46" x2="62" y2="46" stroke="var(--brand-paper-line, #D9C8A6)" stroke-width="4" stroke-linecap="round"/>
  <line x1="32" y1="56" x2="46" y2="56" stroke="var(--brand-paper-line, #D9C8A6)" stroke-width="4" stroke-linecap="round"/>
  <line x1="32" y1="66" x2="44" y2="66" stroke="var(--brand-accent, #D97706)" stroke-width="4" stroke-linecap="round"/>
  <path d="M59 61.5 C58 57 51.5 56.5 50.5 61 C49.5 65 54 69 59 73 C64 69 68.5 65 67.5 61 C66.5 56.5 60 57 59 61.5 Z"
        fill="var(--brand-accent, #D97706)"/>
</svg>
